<svg xmlns="http://www.w3.org/2000/svg" viewBox="0 0 586.51 718.42"><defs><style>.cls-1{fill:#fff;}</style></defs><title>logo blanc transparent</title><g id="Calque_2" data-name="Calque 2"><g id="Calque_7" data-name="Calque 7"><path class="cls-1" d="M229.38,624.18v94.24h94.49V625.33A415.81,415.81,0,0,1,229.38,624.18Z"/><path class="cls-1" d="M582,242.24A293.18,293.18,0,0,0,53,125.18a293.42,293.42,0,0,0,189.74,457V570.12h0l-13.51-2.86c-106.27-25-193-110.9-213.16-225-27-152.82,75.36-299.12,228.17-326.12S543.4,91.47,570.41,244.28,495.05,543.4,342.23,570.41a261.55,261.55,0,0,1-30.48,3.5V585.7A277,277,0,0,0,344.27,582,293.19,293.19,0,0,0,582,242.24Z"/><polygon class="cls-1" points="136.01 225.93 167.31 225.56 248.79 398.17 275.01 335 222.41 213.23 207.84 213.23 260.4 334.86 247.76 364.99 176.05 213.1 115.05 212.88 228.29 447.57 235.03 431.15 136.01 225.93"/><polygon class="cls-1" points="410.76 167.91 271.77 500.68 270.8 502.99 270.8 573.91 284.63 573.92 284.51 501.7 419.57 181.12 452.57 181.12 312.33 500.32 311.78 501.59 311.78 579.14 324.99 579.14 324.99 501.7 472.8 167.91 410.76 167.91"/><polygon class="cls-1" points="366.86 167.9 381.13 167.91 241.19 501.7 242.78 578.12 229.27 575.26 228.56 500.74 366.86 167.9"/></g></g></svg>