<?xml version="1.0" encoding="utf-8"?>
<!-- Generator: Adobe Illustrator 25.2.1, SVG Export Plug-In . SVG Version: 6.00 Build 0)  -->
<svg version="1.1" id="Calque_1" xmlns="http://www.w3.org/2000/svg" xmlns:xlink="http://www.w3.org/1999/xlink" x="0px" y="0px"
	 viewBox="0 0 630.71 303.12" style="enable-background:new 0 0 630.71 303.12;" xml:space="preserve">
<style type="text/css">
	.st0{fill:#FFFFFF;}
	.st1{fill:none;}
	.st2{fill:none;stroke:#FFFFFF;stroke-width:0;stroke-linecap:round;stroke-linejoin:round;}
</style>
<path class="st0" d="M289.85,78.71l12.75,32.96l-6.2,15.04l-22.28-48H289.85z M321.42,78.71h15.73l-25.15,50.18v34.45H298v-28.25
	L321.42,78.71z"/>
<path class="st0" d="M341.46,130.96c0-4.44,0.65-8.57,1.95-12.4c1.3-3.83,3.16-7.18,5.57-10.05s5.3-5.19,8.67-6.95
	c3.37-1.76,7.08-2.83,11.14-3.22v10.68c-3.83,0.84-6.89,3.25-9.19,7.23c-2.3,3.98-3.45,8.77-3.45,14.35c0,2.83,0.29,5.51,0.86,8.04
	c0.57,2.53,1.4,4.79,2.47,6.78c1.07,1.99,2.39,3.64,3.96,4.94c1.57,1.3,3.35,2.11,5.34,2.41v11.02c-4.21-0.31-8-1.36-11.37-3.16
	c-3.37-1.8-6.24-4.15-8.61-7.06c-2.37-2.91-4.19-6.32-5.45-10.22C342.09,139.46,341.46,135.32,341.46,130.96z M373.5,98.23
	c4.21,0.23,8.04,1.25,11.48,3.04c3.44,1.8,6.33,4.17,8.67,7.12c2.33,2.95,4.15,6.37,5.45,10.28c1.3,3.9,1.95,8.08,1.95,12.52
	c0,4.44-0.67,8.59-2.01,12.46c-1.34,3.87-3.2,7.23-5.57,10.11c-2.37,2.87-5.28,5.19-8.73,6.95c-3.45,1.76-7.2,2.79-11.25,3.1v-11.02
	c3.83-0.84,6.95-3.25,9.36-7.23c2.41-3.98,3.62-8.77,3.62-14.35c0-2.83-0.29-5.49-0.86-7.98c-0.57-2.49-1.44-4.73-2.58-6.72
	c-1.15-1.99-2.53-3.64-4.13-4.94c-1.61-1.3-3.41-2.14-5.4-2.53V98.23z"/>
<path class="st0" d="M415.57,74.12h13.89v89.23h-13.89V74.12z M463.8,105.7c1.3,1.3,2.31,2.81,3.04,4.54
	c0.73,1.72,1.26,3.52,1.61,5.4c0.34,1.88,0.55,3.77,0.63,5.68c0.08,1.91,0.11,3.79,0.11,5.63v34.11v2.3h-14.01v-35.25
	c0-2.6-0.11-5.09-0.34-7.46c-0.23-2.37-0.77-4.48-1.61-6.32c-0.84-1.84-1.99-3.27-3.45-4.31c-1.45-1.03-3.48-1.55-6.09-1.55
	c-1.07,0-2.51,0.17-4.31,0.52c-1.8,0.34-3.54,0.9-5.22,1.67v-8.84c2.07-1.07,4.31-1.99,6.72-2.76c2.41-0.76,4.77-1.15,7.06-1.15
	c3.45,0,6.35,0.71,8.73,2.12C459.06,101.43,461.43,103.32,463.8,105.7z"/>
<path class="st0" d="M496.76,143.82c0,3.45,0.71,6.01,2.12,7.69c1.42,1.68,3.46,2.68,6.14,2.99v9.3c-0.31,0.08-0.8,0.11-1.49,0.11
	c-2.6,0-5.11-0.34-7.52-1.03c-2.41-0.69-4.54-1.8-6.37-3.33c-1.84-1.53-3.27-3.56-4.31-6.09c-1.03-2.53-1.55-5.63-1.55-9.3
	c0-3.52,0.75-6.56,2.24-9.13c1.49-2.56,3.41-4.67,5.74-6.32c2.33-1.65,5-2.87,7.98-3.67c2.99-0.8,6.01-1.21,9.07-1.21h5.05v8.15
	h-2.53c-1.53,0-3.14,0.15-4.82,0.46c-1.68,0.31-3.25,0.88-4.71,1.72c-1.45,0.84-2.66,2.05-3.62,3.62
	C497.24,139.36,496.76,141.37,496.76,143.82z M532.47,144.17c0,0.61,0.04,1.51,0.11,2.7c0.08,1.19,0.23,2.39,0.46,3.62
	c0.23,1.23,0.59,2.34,1.09,3.33c0.5,1,1.17,1.65,2.01,1.95l-3.67,7.69c-1,0-2.05-0.23-3.16-0.69c-1.11-0.46-2.18-1.11-3.22-1.95
	c-1.03-0.84-1.91-1.78-2.64-2.81c-0.73-1.03-1.28-2.16-1.67-3.39c-0.77,1.91-2.28,3.62-4.54,5.11c-2.26,1.49-4.77,2.58-7.52,3.27
	v-8.73c1.84-0.38,3.5-1.13,5-2.24c1.49-1.11,2.77-2.43,3.85-3.96v-24.23c0-3.75-0.19-6.74-0.57-8.96c-0.38-2.22-1.03-3.85-1.95-4.88
	c-0.92-1.03-2.05-1.68-3.39-1.95c-1.34-0.27-2.93-0.4-4.77-0.4c-1.68,0-3.27,0.21-4.77,0.63c-1.49,0.42-2.87,0.92-4.13,1.49
	c-1.26,0.57-2.37,1.21-3.33,1.89c-0.96,0.69-1.67,1.23-2.12,1.61l-5.17-7.92c0.76-0.84,1.91-1.7,3.45-2.58
	c1.53-0.88,3.29-1.67,5.28-2.35c1.99-0.69,4.15-1.24,6.49-1.67c2.33-0.42,4.77-0.63,7.29-0.63c2.3,0,4.54,0.23,6.72,0.69
	c2.18,0.46,4.17,1.23,5.97,2.3c1.8,1.07,3.37,2.51,4.71,4.31c1.34,1.8,2.28,4.04,2.81,6.72c0.53,2.68,0.9,5.38,1.09,8.1
	c0.19,2.72,0.29,5.42,0.29,8.1v14.93V144.17z"/>
<path class="st0" d="M565.05,98.58l1.49,6.55v58.22h-13.89V98.58H565.05z M600.88,105.7c1.3,1.3,2.31,2.81,3.04,4.54
	c0.73,1.72,1.26,3.52,1.61,5.4c0.34,1.88,0.55,3.77,0.63,5.68c0.08,1.91,0.11,3.79,0.11,5.63v34.11v2.3h-14.01v-35.25
	c0-2.6-0.11-5.09-0.34-7.46c-0.23-2.37-0.77-4.48-1.61-6.32c-0.84-1.84-1.99-3.27-3.45-4.31c-1.45-1.03-3.48-1.55-6.09-1.55
	c-1.07,0-2.51,0.17-4.31,0.52c-1.8,0.34-3.54,0.9-5.22,1.67v-8.84c2.07-1.07,4.31-1.99,6.72-2.76c2.41-0.76,4.77-1.15,7.06-1.15
	c3.45,0,6.35,0.71,8.73,2.12C596.13,101.43,598.51,103.32,600.88,105.7z"/>
<g>
	<path class="st0" d="M285.56,207.14c0-3.8,0.46-7.17,1.38-10.1c0.92-2.93,2.2-5.41,3.85-7.44c1.64-2.03,3.6-3.59,5.87-4.68
		c2.26-1.09,4.7-1.72,7.31-1.89v6.41c-1.45,0.17-2.81,0.62-4.07,1.35c-1.26,0.73-2.36,1.79-3.3,3.21c-0.94,1.41-1.7,3.21-2.28,5.38
		c-0.58,2.18-0.89,4.77-0.93,7.76c0.04,3.04,0.35,5.63,0.93,7.79c0.58,2.16,1.35,3.96,2.31,5.42c0.96,1.45,2.07,2.55,3.33,3.3
		c1.26,0.75,2.6,1.19,4.01,1.31v6.22h-1.15c-2.48-0.3-4.78-1.03-6.89-2.18s-3.94-2.73-5.48-4.74c-1.54-2.01-2.74-4.44-3.59-7.31
		C285.99,214.08,285.56,210.81,285.56,207.14z M324.98,207.14c0,3.25-0.38,6.2-1.15,8.85c-0.77,2.65-1.82,4.98-3.14,6.99
		c-1.33,2.01-2.86,3.65-4.62,4.94c-1.75,1.28-3.61,2.12-5.58,2.5l8.85,11.41h-8.46l-4.3-7.37v-9.49c1.45-0.17,2.81-0.63,4.07-1.38
		c1.26-0.75,2.36-1.84,3.3-3.27c0.94-1.43,1.7-3.23,2.28-5.38c0.58-2.16,0.89-4.75,0.93-7.79c-0.04-3.03-0.35-5.63-0.93-7.79
		c-0.58-2.16-1.35-3.95-2.31-5.38c-0.96-1.43-2.07-2.52-3.33-3.27c-1.26-0.75-2.6-1.19-4.01-1.31v-6.35
		c2.61,0.13,5.03,0.75,7.28,1.86c2.24,1.11,4.19,2.68,5.83,4.71c1.64,2.03,2.94,4.51,3.88,7.44
		C324.51,199.97,324.98,203.33,324.98,207.14z"/>
	<path class="st0" d="M342.61,214.51c0,1.5,0.06,2.9,0.19,4.2c0.13,1.3,0.41,2.45,0.83,3.43c0.43,0.98,1.07,1.77,1.92,2.37
		c0.85,0.6,1.99,0.9,3.4,0.9c0.55,0,1.35-0.09,2.37-0.26c1.03-0.17,2.01-0.45,2.95-0.83v4.74c-1.11,0.6-2.32,1.12-3.62,1.57
		c-1.3,0.45-2.6,0.67-3.88,0.67c-1.03,0-1.95-0.1-2.76-0.29c-0.81-0.19-1.57-0.49-2.28-0.9c-0.71-0.41-1.38-0.87-2.02-1.38
		c-0.64-0.51-1.28-1.09-1.92-1.73c-0.73-0.73-1.3-1.57-1.73-2.53c-0.43-0.96-0.74-1.97-0.93-3.01c-0.19-1.05-0.3-2.1-0.32-3.17
		c-0.02-1.07-0.03-2.12-0.03-3.14v-20.32h7.82V214.51z M364.73,194.83v36.16h-6.99l-0.83-3.72v-32.44H364.73z"/>
	<path class="st0" d="M384.09,183.29c0,1.28-0.45,2.36-1.35,3.24c-0.9,0.88-1.99,1.31-3.27,1.31s-2.36-0.45-3.24-1.35
		c-0.88-0.9-1.31-1.97-1.31-3.21c0-1.28,0.45-2.37,1.35-3.27c0.9-0.9,1.97-1.35,3.21-1.35c1.28,0,2.37,0.45,3.27,1.35
		C383.64,180.92,384.09,182.01,384.09,183.29z M383.38,230.98h-7.82v-36.16h7.82V230.98z"/>
	<path class="st0" d="M401.21,194.83l0.83,3.65v32.5h-7.76v-36.16H401.21z M421.21,198.8c0.73,0.73,1.29,1.57,1.7,2.53
		c0.41,0.96,0.71,1.97,0.9,3.01c0.19,1.05,0.31,2.11,0.35,3.17c0.04,1.07,0.06,2.12,0.06,3.14v19.04v1.28h-7.82V211.3
		c0-1.45-0.06-2.84-0.19-4.17c-0.13-1.32-0.43-2.5-0.9-3.53c-0.47-1.03-1.11-1.83-1.92-2.4c-0.81-0.58-1.95-0.87-3.4-0.87
		c-0.6,0-1.4,0.1-2.4,0.29c-1,0.19-1.98,0.5-2.92,0.93v-4.94c1.15-0.6,2.4-1.11,3.75-1.54c1.35-0.43,2.66-0.64,3.94-0.64
		c1.92,0,3.55,0.4,4.87,1.19C418.56,196.42,419.88,197.48,421.21,198.8z"/>
	<path class="st0" d="M432.62,212.39c0-3.33,0.46-6.13,1.38-8.4c0.92-2.26,2.1-4.11,3.56-5.55c1.45-1.43,3.07-2.45,4.84-3.05
		c1.77-0.6,3.51-0.9,5.22-0.9c1.32,0,2.59,0.15,3.78,0.45c1.2,0.3,2.26,0.73,3.21,1.28v6.8c-0.73-0.77-1.54-1.39-2.44-1.86
		c-0.9-0.47-1.88-0.71-2.95-0.71c-1.28,0-2.45,0.33-3.49,0.99c-1.05,0.66-1.92,1.55-2.63,2.66c-0.71,1.11-1.26,2.41-1.67,3.91
		c-0.41,1.5-0.61,3.08-0.61,4.74c0,1.75,0.21,3.39,0.64,4.9c0.43,1.52,1.01,2.83,1.76,3.94c0.75,1.11,1.66,1.99,2.72,2.63
		c1.07,0.64,2.24,0.96,3.53,0.96c1.03,0,1.97-0.22,2.82-0.67c0.85-0.45,1.62-1.04,2.31-1.76v6.67c-1.03,0.51-2.2,0.95-3.53,1.31
		c-1.33,0.36-2.74,0.54-4.23,0.54c-2.39,0-4.49-0.52-6.28-1.57c-1.79-1.05-3.28-2.45-4.46-4.2c-1.18-1.75-2.05-3.77-2.63-6.06
		C432.91,217.19,432.62,214.83,432.62,212.39z M465.05,235.22c0,0.51,0,1.05,0,1.6c0,0.55,0.06,1.11,0.19,1.67
		c0.13,0.55,0.36,1.09,0.71,1.6c0.34,0.51,0.83,0.98,1.47,1.41c-0.09,0.13-0.24,0.42-0.45,0.87c-0.21,0.45-0.47,0.93-0.77,1.44
		c-0.3,0.55-0.62,1.2-0.96,1.92c-2.48-0.34-4.43-1.44-5.87-3.3c-1.43-1.86-2.15-4.09-2.15-6.7v-37.25l0.83-3.65h6.99V235.22z"/>
	<path class="st0" d="M483.52,214.51c0,1.5,0.06,2.9,0.19,4.2c0.13,1.3,0.41,2.45,0.83,3.43c0.43,0.98,1.07,1.77,1.92,2.37
		c0.85,0.6,1.99,0.9,3.4,0.9c0.55,0,1.35-0.09,2.37-0.26c1.03-0.17,2.01-0.45,2.95-0.83v4.74c-1.11,0.6-2.32,1.12-3.62,1.57
		c-1.3,0.45-2.6,0.67-3.88,0.67c-1.03,0-1.95-0.1-2.76-0.29c-0.81-0.19-1.57-0.49-2.28-0.9c-0.71-0.41-1.38-0.87-2.02-1.38
		c-0.64-0.51-1.28-1.09-1.92-1.73c-0.73-0.73-1.3-1.57-1.73-2.53c-0.43-0.96-0.74-1.97-0.93-3.01c-0.19-1.05-0.3-2.1-0.32-3.17
		c-0.02-1.07-0.03-2.12-0.03-3.14v-20.32h7.82V214.51z M505.63,194.83v36.16h-6.99l-0.83-3.72v-32.44H505.63z"/>
	<path class="st0" d="M524.99,183.29c0,1.28-0.45,2.36-1.35,3.24c-0.9,0.88-1.99,1.31-3.27,1.31s-2.36-0.45-3.24-1.35
		c-0.88-0.9-1.31-1.97-1.31-3.21c0-1.28,0.45-2.37,1.35-3.27c0.9-0.9,1.97-1.35,3.21-1.35c1.28,0,2.37,0.45,3.27,1.35
		C524.54,180.92,524.99,182.01,524.99,183.29z M524.29,230.98h-7.82v-36.16h7.82V230.98z"/>
	<path class="st0" d="M534.35,205.15c0-1.62,0.3-3.09,0.9-4.39c0.6-1.3,1.43-2.41,2.5-3.33c1.07-0.92,2.28-1.64,3.62-2.18
		c1.35-0.53,2.75-0.87,4.2-0.99v6.41c-1.11,0.21-1.98,0.66-2.6,1.35c-0.62,0.68-0.93,1.65-0.93,2.88c0,1.03,0.33,1.85,0.99,2.47
		c0.66,0.62,1.51,1.16,2.53,1.63v6.86c-0.73-0.21-1.46-0.46-2.21-0.74c-0.75-0.28-1.49-0.59-2.21-0.93c-2.27-1.2-3.96-2.46-5.1-3.78
		C534.92,209.08,534.35,207.33,534.35,205.15z M537.75,222.91c0.85,0.6,1.87,1.15,3.05,1.67c1.18,0.51,2.66,0.77,4.46,0.77h0.32
		v5.96c-1.07,0-2.05-0.03-2.95-0.1s-1.78-0.21-2.66-0.45c-0.88-0.23-1.76-0.57-2.66-0.99c-0.9-0.43-1.84-0.98-2.82-1.67
		L537.75,222.91z M555.76,202.46c-1.15-0.6-2.38-1.05-3.69-1.35c-1.3-0.3-2.6-0.49-3.88-0.58v-6.35c1.92,0.09,3.7,0.35,5.32,0.8
		c1.62,0.45,3.21,1.16,4.74,2.15L555.76,202.46z M548.2,210.02c1.28,0.43,2.59,0.9,3.91,1.41c1.32,0.51,2.53,1.15,3.62,1.92
		c1.09,0.77,1.99,1.72,2.69,2.85c0.71,1.13,1.06,2.55,1.06,4.26c0,1.67-0.3,3.12-0.9,4.36c-0.6,1.24-1.4,2.31-2.4,3.21
		c-1,0.9-2.19,1.6-3.56,2.12c-1.37,0.51-2.84,0.85-4.42,1.03v-6.09c1.45-0.26,2.57-0.72,3.37-1.38c0.79-0.66,1.19-1.55,1.19-2.66
		c0-1.11-0.44-1.98-1.31-2.6c-0.88-0.62-1.96-1.16-3.24-1.63V210.02z"/>
</g>
<g>
	<path class="st0" d="M307.27,260.93c0,6.41-4.18,10.3-10.98,10.3h-6.44v-20.69h6.44C303.09,250.54,307.27,254.51,307.27,260.93z
		 M296.29,269c5.4,0,8.22-3.03,8.22-8.07c0-5.05-2.82-8.19-8.22-8.19h-3.74V269H296.29z"/>
	<path class="st0" d="M320.26,271.49c-4.63,0-8.04-3.26-8.04-8.43c0-5.13,3.29-8.37,8.04-8.37c4.72,0,7.81,3.32,7.81,7.78
		c0,0.59-0.03,1.07-0.09,1.63h-13c0.21,3.29,2.52,5.1,5.28,5.1c2.43,0,3.98-1.25,4.57-3h2.91
		C326.91,269.18,324.29,271.49,320.26,271.49z M315,261.91h10.27c0.03-3.18-2.34-4.93-5.13-4.93
		C317.5,256.98,315.3,258.73,315,261.91z"/>
	<path class="st0" d="M334.35,254.96l5.08,13.77l5.05-13.77h2.88l-6.38,16.26h-3.15l-6.38-16.26H334.35z"/>
	<path class="st0" d="M359.03,271.49c-4.63,0-8.04-3.26-8.04-8.43c0-5.13,3.29-8.37,8.04-8.37c4.72,0,7.81,3.32,7.81,7.78
		c0,0.59-0.03,1.07-0.09,1.63h-13c0.21,3.29,2.52,5.1,5.28,5.1c2.43,0,3.98-1.25,4.57-3h2.91
		C365.68,269.18,363.07,271.49,359.03,271.49z M353.78,261.91h10.27c0.03-3.18-2.34-4.93-5.13-4.93
		C356.27,256.98,354.07,258.73,353.78,261.91z"/>
	<path class="st0" d="M371.75,249.26h2.7v21.96h-2.7V249.26z"/>
	<path class="st0" d="M388.11,271.37c-4.6,0-8.1-3.26-8.1-8.43c0-5.13,3.62-8.37,8.22-8.37c4.63,0,8.22,3.24,8.22,8.37
		C396.45,268.11,392.74,271.37,388.11,271.37z M388.11,269c2.82,0,5.58-1.93,5.58-6.05c0-4.1-2.7-6.03-5.49-6.03
		c-2.85,0-5.43,1.93-5.43,6.03C382.77,267.07,385.29,269,388.11,269z"/>
	<path class="st0" d="M409.96,254.72c4.36,0,7.72,3.26,7.72,8.34c0,5.05-3.35,8.46-7.72,8.46c-2.97,0-5.08-1.6-6.08-3.26v10.71h-2.7
		v-23.98h2.7v3C404.85,256.27,406.99,254.72,409.96,254.72z M409.4,257.07c-2.94,0-5.52,2.26-5.52,6.03c0,3.83,2.58,6.05,5.52,6.05
		c3,0,5.52-2.26,5.52-6.08S412.39,257.07,409.4,257.07z"/>
	<path class="st0" d="M429.22,271.52c-4.63,0-8.04-3.26-8.04-8.43c0-5.13,3.29-8.37,8.04-8.37c4.72,0,7.81,3.32,7.81,7.78
		c0,0.59-0.03,1.07-0.09,1.63h-13c0.21,3.29,2.52,5.1,5.28,5.1c2.43,0,3.98-1.25,4.57-3h2.91
		C435.86,269.21,433.25,271.52,429.22,271.52z M423.96,261.93h10.27c0.03-3.18-2.34-4.93-5.13-4.93
		C426.46,257.01,424.26,258.76,423.96,261.93z"/>
	<path class="st0" d="M444.74,271.24h-2.7v-16.26h2.7v2.64c0.92-1.81,2.67-2.94,5.25-2.94v2.79h-0.71c-2.58,0-4.54,1.16-4.54,4.93
		V271.24z"/>
</g>
<path class="st1" d="M154.84,233.62v-8.51V233.62c3.99-0.25,8-0.69,12.03-1.41c58-10.25,96.86-65.78,86.61-123.78
	c-10.25-58-65.78-96.86-123.78-86.61c-58,10.25-96.86,65.78-86.61,123.78c7.98,45.14,43.38,78.68,86.03,86.5v-3.24v3.24
	C137.46,233.64,146.08,234.17,154.84,233.62z"/>
<g>
	<g>
		<path class="st0" d="M257.82,107.75c-5.17-29.27-21.43-54.78-45.79-71.81c-24.35-17.04-53.89-23.58-83.16-18.4
			C99.6,22.71,74.1,38.97,57.06,63.32s-23.58,53.89-18.4,83.16c5.17,29.27,21.43,54.78,45.79,71.82
			c13.58,9.5,28.78,15.73,44.63,18.49v-3.05v-1.53c0,0,0,0,0,0l-0.6-25.97l53.11-126.69l-5.42,0l-52.49,126.34l-0.19,0.47
			l0.46,24.78c-40.34-9.48-73.25-42.09-80.91-85.41c-10.25-58,28.6-113.53,86.61-123.78c58-10.25,113.53,28.6,123.78,86.61
			c10.25,58.01-28.6,113.53-86.61,123.78c-4.03,0.71-7.58,1.08-11.57,1.33v4.47c4.26-0.26,8.07-0.66,12.34-1.42
			c29.27-5.17,54.78-21.43,71.81-45.79C256.45,166.56,262.99,137.02,257.82,107.75z"/>
		<line class="st2" x1="129.11" y1="233.64" x2="129.11" y2="232.11"/>
	</g>
	<polygon class="st0" points="192.83,79.54 140.08,205.85 139.71,206.72 139.71,233.64 144.96,233.65 144.91,206.23 196.18,84.55 
		208.7,84.55 155.47,205.71 155.26,206.19 155.26,235.63 160.28,235.63 160.28,206.23 216.38,79.54 	"/>
	<polygon class="st0" points="88.55,101.56 100.43,101.42 131.36,166.94 141.31,142.96 121.34,96.74 115.81,96.74 135.76,142.91 
		130.97,154.34 103.75,96.69 80.59,96.61 123.57,185.69 126.14,179.45 	"/>
</g>
<g>
	<path class="st0" d="M123.99,252.72v35.77h35.87v-35.33C142.83,254.99,127.92,253.26,123.99,252.72z"/>
</g>
<path class="st0" d="M219.37,96.61"/>
<path class="st0" d="M80.59,96.61"/>
</svg>
